<?xml version="1.0" encoding="utf-8"?>
<!-- Generator: Adobe Illustrator 28.2.0, SVG Export Plug-In . SVG Version: 6.00 Build 0)  -->
<svg version="1.1" id="TEXTS" xmlns="http://www.w3.org/2000/svg" xmlns:xlink="http://www.w3.org/1999/xlink" x="0px" y="0px"
	 viewBox="0 0 598.2 156" style="enable-background:new 0 0 598.2 156;" xml:space="preserve">
<style type="text/css">
	.st0{fill:#FFFFFF;}
	.st1{enable-background:new    ;}
</style>
<g>
	<path class="st0" d="M76.6,62.5c-7.8,0-14.2,6.4-14.2,14.2s6.4,14.2,14.2,14.2s14.2-6.4,14.2-14.2S84.5,62.4,76.6,62.5z M76.6,88.1
		c-6.3,0-11.4-5.1-11.4-11.4s5.1-11.4,11.4-11.4S88,70.4,88,76.7S82.9,88.1,76.6,88.1z"/>
	<path class="st0" d="M75.4,36.4c0.1,0.7,0.7,1.1,1.4,1.1h0.4c0.7,0,1.2-0.5,1.4-1.1l5.2-25.9c0.2-0.8-0.3-1.5-1.1-1.7
		c-0.8-0.1-1.5,0.3-1.7,1.1L77,30L73,9.9c-0.2-0.8-0.9-1.3-1.7-1.1c-0.8,0.1-1.3,0.9-1.1,1.7L75.4,36.4
		C75.4,36.4,75.4,36.4,75.4,36.4z"/>
	<path class="st0" d="M25.3,34.4l22,14.7c0.2,0.2,0.5,0.2,0.8,0.2c0.4,0,0.7-0.1,1-0.4l0.3-0.3c0.5-0.5,0.5-1.2,0.2-1.8l-14.7-22
		c-0.4-0.6-1.3-0.8-2-0.4c-0.7,0.4-0.8,1.3-0.4,2l11.4,17L26.8,32c-0.6-0.4-1.5-0.3-2,0.4C24.5,33.1,24.6,34,25.3,34.4L25.3,34.4z"
		/>
	<path class="st0" d="M37.5,76.5v-0.4c0-0.7-0.5-1.2-1.1-1.4l-25.9-5.2c-0.8-0.2-1.5,0.3-1.7,1.1c-0.1,0.8,0.3,1.5,1.1,1.7l20.1,4
		l-20.1,4c-0.8,0.2-1.3,0.9-1.1,1.7c0.1,0.7,0.7,1.1,1.4,1.1c0.1,0,0.2,0,0.3,0l25.9-5.2C37,77.8,37.5,77.2,37.5,76.5L37.5,76.5
		L37.5,76.5z"/>
	<path class="st0" d="M48.8,104.2l-0.3-0.3c-0.5-0.5-1.2-0.6-1.8-0.2l-22,14.7c-0.6,0.4-0.8,1.3-0.4,1.9c0.4,0.7,1.3,0.8,2,0.4
		l17-11.4l-11.4,17c-0.4,0.6-0.3,1.5,0.4,2c0.2,0.2,0.5,0.2,0.8,0.2c0.5,0,0.9-0.2,1.2-0.6L49,106C49.4,105.5,49.3,104.7,48.8,104.2
		L48.8,104.2L48.8,104.2z"/>
	<path class="st0" d="M77.8,116.9c-0.1-0.7-0.7-1.1-1.4-1.1H76c-0.7,0-1.2,0.5-1.4,1.1l-5.2,25.9c-0.2,0.8,0.3,1.5,1.1,1.7
		c0.8,0.1,1.5-0.3,1.7-1.1l4-20.1l4,20.1c0.1,0.7,0.7,1.1,1.4,1.1c0.1,0,0.2,0,0.3,0c0.8-0.1,1.3-0.9,1.1-1.7L77.8,116.9
		C77.8,117,77.8,117,77.8,116.9z"/>
	<path class="st0" d="M127.9,119l-22-14.7c-0.6-0.4-1.3-0.3-1.8,0.2l-0.3,0.3c-0.5,0.5-0.6,1.2-0.2,1.8l14.7,22
		c0.3,0.4,0.7,0.6,1.2,0.6c0.3,0,0.5-0.1,0.8-0.2c0.7-0.4,0.8-1.3,0.4-1.9l-11.4-17l17,11.4c0.7,0.4,1.5,0.3,2-0.4
		C128.8,120.3,128.6,119.4,127.9,119L127.9,119L127.9,119z"/>
	<path class="st0" d="M143.4,81l-20.1-4l20.1-4c0.8-0.2,1.3-0.9,1.1-1.7c-0.1-0.8-0.9-1.3-1.7-1.1l-25.9,5.2
		c-0.7,0.1-1.1,0.7-1.1,1.4v0.4c0,0.7,0.5,1.2,1.1,1.4l25.9,5.2c0.1,0,0.2,0,0.3,0c0.7,0,1.2-0.5,1.4-1.1
		C144.6,81.9,144.1,81.2,143.4,81L143.4,81L143.4,81z"/>
	<path class="st0" d="M141.6,93.6l-40.4-16.7l40.4-16.7c0.7-0.3,1.1-1.1,0.8-1.8s-1.1-1.1-1.8-0.8L98.2,75.1
		c-0.1-1.8-0.5-3.6-1.1-5.3l42-17.4c0.7-0.3,1.1-1.1,0.8-1.8s-1.1-1.1-1.8-0.8L96,67.1c-0.8-1.6-1.7-3-2.8-4.3l42.4-17.6
		c0.7-0.3,1.1-1.1,0.8-1.8s-1.1-1.1-1.8-0.8L94.1,59.4L110.9,19c0.3-0.7-0.1-1.5-0.8-1.8c-0.7-0.3-1.6,0-1.8,0.8L90.7,60.3
		c-1.4-1.2-2.9-2.2-4.5-3l17.4-42c0.3-0.7-0.1-1.6-0.8-1.8c-0.7-0.3-1.6,0.1-1.8,0.8l-17.4,42c-1.6-0.5-3.3-0.9-5-1.1l17.6-42.4
		c0.3-0.7-0.1-1.6-0.8-1.8c-0.7-0.3-1.6,0.1-1.8,0.8L76.8,52.1L60,11.7c-0.3-0.7-1.1-1.1-1.8-0.8c-0.7,0.3-1.1,1.1-0.8,1.8L75,55.1
		c-1.8,0.1-3.6,0.5-5.3,1.1l-17.4-42c-0.3-0.7-1.1-1.1-1.8-0.8c-0.7,0.3-1.1,1.1-0.8,1.8l17.4,42c-1.6,0.8-3,1.7-4.3,2.8L45.2,17.7
		c-0.3-0.7-1.1-1.1-1.8-0.8c-0.7,0.3-1.1,1.1-0.8,1.8l16.7,40.4L19,42.4c-0.7-0.3-1.5,0-1.8,0.8s0,1.5,0.8,1.8l42.4,17.5
		c-1.2,1.4-2.2,2.9-3,4.5l-42-17.4c-0.7-0.3-1.6,0-1.8,0.8c-0.3,0.7,0.1,1.5,0.8,1.8l42,17.4c-0.5,1.6-0.9,3.3-1.1,5L12.7,57.2
		c-0.7-0.3-1.6,0-1.8,0.8c-0.3,0.7,0.1,1.5,0.8,1.8L52,76.5L11.6,93.2c-0.7,0.3-1.1,1.1-0.8,1.8c0.2,0.6,0.8,0.9,1.3,0.9
		c0.2,0,0.4,0,0.5-0.1l42.4-17.5c0.1,1.8,0.5,3.6,1.1,5.3l-42,17.4c-0.7,0.3-1.1,1.1-0.8,1.8c0.2,0.6,0.8,0.9,1.3,0.9
		c0.2,0,0.4,0,0.5-0.1l42-17.4c0.8,1.6,1.7,3,2.8,4.3l-42.4,17.6c-0.7,0.3-1.1,1.1-0.8,1.8s1.1,1.1,1.8,0.8L59.1,94l-16.7,40.4
		c-0.3,0.7,0,1.6,0.8,1.8c0.2,0.1,0.4,0.1,0.5,0.1c0.5,0,1.1-0.3,1.3-0.9L62.5,93c1.4,1.2,2.9,2.2,4.5,3l-17.4,42
		c-0.3,0.7,0,1.6,0.8,1.8c0.2,0.1,0.4,0.1,0.5,0.1c0.5,0,1.1-0.3,1.3-0.9l17.4-42c1.6,0.6,3.3,0.9,5,1.1l-17.6,42.4
		c-0.3,0.7,0,1.6,0.8,1.8c0.7,0.3,1.5-0.1,1.8-0.8l16.7-40.4l16.7,40.4c0.2,0.6,0.8,0.9,1.3,0.9c0.2,0,0.4,0,0.5-0.1
		c0.7-0.3,1.1-1.1,0.8-1.8L78.2,98.2c1.8-0.1,3.6-0.5,5.3-1.1l17.4,42c0.2,0.6,0.8,0.9,1.3,0.9c0.2,0,0.4,0,0.5-0.1
		c0.7-0.3,1.1-1.1,0.8-1.8l-17.4-42c1.6-0.8,3-1.7,4.3-2.8l17.6,42.4c0.2,0.6,0.8,0.9,1.3,0.9c0.2,0,0.4,0,0.5-0.1
		c0.7-0.3,1.1-1.1,0.8-1.8L93.9,94.2l40.4,16.7c0.7,0.3,1.6-0.1,1.8-0.8s-0.1-1.6-0.8-1.8L93,90.8c1.2-1.4,2.2-2.9,3-4.5l42,17.4
		c0.2,0.1,0.4,0.1,0.5,0.1c0.6,0,1.1-0.3,1.3-0.9c0.3-0.7-0.1-1.6-0.8-1.8L97,83.6c0.6-1.6,0.9-3.3,1.1-5l42.4,17.6
		c0.2,0.1,0.4,0.1,0.5,0.1c0.6,0,1.1-0.3,1.3-0.9C142.6,94.7,142.3,93.9,141.6,93.6L141.6,93.6L141.6,93.6z M76.6,95.5
		c-10.4,0-18.8-8.4-18.8-18.8s8.4-18.8,18.8-18.8s18.8,8.4,18.8,18.8S87,95.5,76.6,95.5z"/>
	<path class="st0" d="M104.4,49.1l0.3,0.3c0.3,0.3,0.6,0.4,1,0.4c0.3,0,0.6-0.1,0.8-0.2l22-14.7c0.6-0.4,0.8-1.3,0.4-2
		s-1.3-0.8-1.9-0.4l-17,11.4l11.4-17c0.4-0.6,0.3-1.5-0.4-2c-0.6-0.4-1.5-0.3-1.9,0.4l-14.7,22C103.9,47.9,103.9,48.6,104.4,49.1
		L104.4,49.1L104.4,49.1z"/>
</g>
<g>
	<g class="st1">
		<path class="st0" d="M166.8,108.2c0.6-3.4,0.8-6.8,0.8-10.3V66.8c0-3.3-0.3-6.7-0.8-10.1h19.3c7.7,0,13.9,2.5,18.6,7.5
			c4.7,5,7,11,7,18c0,7-2.3,13.1-7,18.3s-10.9,7.8-18.6,7.8H166.8z M174.6,98c0,0.9,0.1,3,0.4,6h11.1c5.4,0,9.9-2.2,13.5-6.7
			c3-3.7,4.5-8.8,4.5-15.2c0-6.4-1.7-11.5-5.1-15.4c-3.4-3.9-7.7-5.8-12.9-5.8H175c-0.3,2.8-0.4,4.8-0.4,5.9V98z"/>
		<path class="st0" d="M235.4,87.3l-2.5,0.1h-4.1V98c0,3.7,0.4,7.1,1.1,10.3h-8.9c0.6-3.4,0.8-6.8,0.8-10.3V66.8
			c0-3.3-0.3-6.7-0.8-10.1h11.8c5.6,0,10.1,1.5,13.4,4.4c3.5,2.9,5.2,6.6,5.2,11c0,4.5-1.7,8.1-5.2,11c-0.7,0.5-1.3,0.9-2,1.4
			c-0.7,0.5-1.4,0.8-2.1,1.1l9.7,14.6c2,2.9,4.1,5.6,6.5,8h-10.3c-1.8-4.1-3.4-7.2-4.9-9.1L235.4,87.3z M229.3,60.9
			c-0.3,3.1-0.4,5.1-0.4,5.9v16.3h4.1c3.4,0,6.1-1,8.1-3c2-2,3-4.7,3-7.9c0-3.3-0.9-6-2.8-8c-2.3-2.2-5.1-3.2-8.3-3.2H229.3z"/>
		<path class="st0" d="M273.1,56.6c-0.8,3.4-1.1,6.7-1.1,10.1V98c0,3.7,0.4,7.1,1.1,10.3h-8.9c0.6-3.4,0.8-6.8,0.8-10.3V66.8
			c0-3.3-0.3-6.7-0.8-10.1H273.1z"/>
		<path class="st0" d="M326.8,56.6c-0.8,2.7-1.1,6.1-1.1,10.1V98c0,3.7,0.4,7.1,1.1,10.3h-7.2c-1.9-3.5-3.7-6.4-5.3-8.9l-23.6-31.9
			V98c0,3.5,0.3,6.9,0.8,10.3h-6.7c0.6-3.4,0.8-6.8,0.8-10.3V66.8c0-3.3-0.3-6.7-0.8-10.1h7c1.7,3.5,3.5,6.4,5.5,8.9L320.9,97V66.8
			c0-4-0.4-7.4-1.1-10.1H326.8z"/>
		<path class="st0" d="M347.2,56.6c-0.8,3.4-1.1,6.7-1.1,10.1v14.5L362,64.7c1.8-1.9,3.9-4.5,6.3-8h9c-2.8,1.9-5.4,4.1-7.7,6.6
			L352,81.5l21.1,20.4c2.4,2.3,5.2,4.5,8.2,6.3h-12.4c-2.1-3-4.3-5.6-6.7-7.9l-14.6-14.1l-1.4,1.4V98c0,3.7,0.4,7.1,1.1,10.3h-8.9
			c0.6-3.4,0.8-6.8,0.8-10.3V66.8c0-3.3-0.3-6.7-0.8-10.1H347.2z"/>
		<path class="st0" d="M396.9,108.2c-0.3-3.7-0.8-7-1.7-10.1l-9.4-31.9c-0.8-3.2-2.1-6.4-3.8-9.6h9c0.3,3.5,0.8,6.8,1.7,10.1
			l9.3,31.2l9.1-31.2c1-3.1,1.7-6.5,2-10.1h6.6c0.3,3.5,0.9,6.8,1.8,10.1l9.1,31.2l9.3-31.2c0.9-3.1,1.6-6.5,2-10.1h6.6
			c-1.3,2.2-2.6,5.3-3.9,9.6l-9.1,31.9c-0.8,2.3-1.5,5.7-2,10.1h-7.7c-0.3-3.7-0.9-7-1.8-10.1l-8.7-29.7l-8.6,29.7
			c-0.9,3.1-1.6,6.5-2,10.1H396.9z"/>
		<path class="st0" d="M449,108.2c2.2-2.8,3.9-5.8,5.2-8.9l15.3-33c1.2-2.7,2.3-6,3.4-9.7h6.2c0.9,3.5,2.1,6.7,3.5,9.7l15.2,33
			c1.2,2.8,3,5.8,5.3,8.9h-9.7c-1.1-4.3-2.3-7.6-3.5-9.8l-6.5-13.9h-17.2L460,98.4c-1.5,3.8-2.6,7.1-3.4,9.8H449z M468.1,80.5h13.8
			l-7-15.7L468.1,80.5z"/>
		<path class="st0" d="M523.4,87.3l-2.5,0.1h-4.1V98c0,3.7,0.4,7.1,1.1,10.3h-8.9c0.6-3.4,0.8-6.8,0.8-10.3V66.8
			c0-3.3-0.3-6.7-0.8-10.1h11.8c5.6,0,10.1,1.5,13.4,4.4c3.5,2.9,5.2,6.6,5.2,11c0,4.5-1.7,8.1-5.2,11c-0.7,0.5-1.3,0.9-2,1.4
			c-0.7,0.5-1.4,0.8-2.1,1.1l9.7,14.6c2,2.9,4.1,5.6,6.5,8H536c-1.8-4.1-3.4-7.2-4.9-9.1L523.4,87.3z M517.2,60.9
			c-0.3,3.1-0.4,5.1-0.4,5.9v16.3h4.1c3.4,0,6.1-1,8.1-3c2-2,3-4.7,3-7.9c0-3.3-0.9-6-2.8-8c-2.3-2.2-5.1-3.2-8.3-3.2H517.2z"/>
		<path class="st0" d="M559.9,98c0,0.7,0.1,2.7,0.4,6h9.1c3.7,0,7.2-0.3,10.3-1v5.2h-27.6c0.6-3.4,0.8-6.8,0.8-10.3V66.8
			c0-3.3-0.3-6.7-0.8-10.1h23.5v5.2c-3.9-0.7-7.4-1-10.3-1h-5.1c-0.1,1-0.2,2.1-0.3,3.1c-0.1,1-0.1,2-0.1,2.8v13.5h5.5
			c2.3,0,5.8-0.4,10.3-1.1v6.3c-2.9-0.7-6.3-1-10.3-1h-5.5V98z"/>
	</g>
</g>
</svg>
