<?xml version="1.0" encoding="utf-8"?>
<!-- Generator: Adobe Illustrator 28.2.0, SVG Export Plug-In . SVG Version: 6.00 Build 0)  -->
<svg version="1.1" id="TEXTS" xmlns="http://www.w3.org/2000/svg" xmlns:xlink="http://www.w3.org/1999/xlink" x="0px" y="0px"
	 viewBox="0 0 208 282.5" style="enable-background:new 0 0 208 282.5;" xml:space="preserve">
<style type="text/css">
	.st0{fill:url(#SVGID_1_);}
	.st1{fill:url(#SVGID_00000141414850124655764490000010305211387856496260_);}
	.st2{fill:url(#SVGID_00000033329687846151100000000007122437998957563020_);}
	.st3{fill:url(#SVGID_00000116236708199264515550000004016508631191361949_);}
	.st4{fill:url(#SVGID_00000056414348714798602190000003559141468551939463_);}
	.st5{fill:url(#SVGID_00000048470923326830966860000005317327996101703057_);}
	.st6{fill:url(#SVGID_00000127023497523122589090000014284076677276390806_);}
	.st7{fill:url(#SVGID_00000114039473011473095890000015288767669192741787_);}
	.st8{fill:url(#SVGID_00000043439840576022608630000006524199192893546638_);}
	.st9{fill:url(#SVGID_00000009547873271125371730000002681359114903072684_);}
	.st10{enable-background:new    ;}
	.st11{fill:#BF984B;}
</style>
<g>
	
		<linearGradient id="SVGID_1_" gradientUnits="userSpaceOnUse" x1="-95.35" y1="146.19" x2="315.85" y2="217.46" gradientTransform="matrix(1 0 0 -1 0 284)">
		<stop  offset="0" style="stop-color:#AF8B4C"/>
		<stop  offset="0.28" style="stop-color:#896735"/>
		<stop  offset="0.42" style="stop-color:#B78E4D"/>
		<stop  offset="0.56" style="stop-color:#DEAF62"/>
		<stop  offset="0.63" style="stop-color:#EDBC6B"/>
		<stop  offset="0.71" style="stop-color:#DBAD61"/>
		<stop  offset="0.88" style="stop-color:#AE8649"/>
		<stop  offset="1" style="stop-color:#896735"/>
	</linearGradient>
	<path class="st0" d="M104,81.6c-11.9,0-21.6,9.7-21.6,21.6s9.7,21.6,21.6,21.6s21.6-9.7,21.6-21.6S115.9,81.6,104,81.6z M104,120.6
		c-9.6,0-17.3-7.8-17.3-17.3s7.8-17.3,17.3-17.3s17.3,7.8,17.3,17.3S113.5,120.6,104,120.6z"/>
	
		<linearGradient id="SVGID_00000074410756432475701970000003103673105028530366_" gradientUnits="userSpaceOnUse" x1="-109.1385" y1="225.7715" x2="302.0515" y2="297.0415" gradientTransform="matrix(1 0 0 -1 0 284)">
		<stop  offset="0" style="stop-color:#AF8B4C"/>
		<stop  offset="0.28" style="stop-color:#896735"/>
		<stop  offset="0.42" style="stop-color:#B78E4D"/>
		<stop  offset="0.56" style="stop-color:#DEAF62"/>
		<stop  offset="0.63" style="stop-color:#EDBC6B"/>
		<stop  offset="0.71" style="stop-color:#DBAD61"/>
		<stop  offset="0.88" style="stop-color:#AE8649"/>
		<stop  offset="1" style="stop-color:#896735"/>
	</linearGradient>
	<path style="fill:url(#SVGID_00000074410756432475701970000003103673105028530366_);" d="M102.1,42c0.2,1,1.1,1.7,2.1,1.7h0.7
		c1,0,1.9-0.7,2.1-1.7l7.8-39.4c0.2-1.2-0.5-2.3-1.7-2.5c-1.2-0.2-2.3,0.5-2.5,1.7l-6.1,30.5L98.5,1.7C98.2,0.6,97.1-0.2,96,0
		c-1.2,0.2-1.9,1.4-1.7,2.5L102.1,42L102.1,42z"/>
	
		<linearGradient id="SVGID_00000074400959061557664530000006927531262758663598_" gradientUnits="userSpaceOnUse" x1="-107.1594" y1="214.2967" x2="304.0406" y2="285.5767" gradientTransform="matrix(1 0 0 -1 0 284)">
		<stop  offset="0" style="stop-color:#AF8B4C"/>
		<stop  offset="0.28" style="stop-color:#896735"/>
		<stop  offset="0.42" style="stop-color:#B78E4D"/>
		<stop  offset="0.56" style="stop-color:#DEAF62"/>
		<stop  offset="0.63" style="stop-color:#EDBC6B"/>
		<stop  offset="0.71" style="stop-color:#DBAD61"/>
		<stop  offset="0.88" style="stop-color:#AE8649"/>
		<stop  offset="1" style="stop-color:#896735"/>
	</linearGradient>
	<path style="fill:url(#SVGID_00000074400959061557664530000006927531262758663598_);" d="M25.9,38.9l33.4,22.3
		c0.4,0.2,0.8,0.4,1.2,0.4c0.5,0,1.1-0.2,1.5-0.6l0.5-0.5c0.7-0.7,0.8-1.9,0.3-2.7L40.4,24.4c-0.7-1-2-1.2-3-0.6c-1,0.7-1.2,2-0.6,3
		l17.3,25.9L28.3,35.4c-1-0.7-2.3-0.4-3,0.6C24.7,36.9,24.9,38.3,25.9,38.9z"/>
	
		<linearGradient id="SVGID_00000073722516800262337630000008689023088189042306_" gradientUnits="userSpaceOnUse" x1="-98.3991" y1="163.7546" x2="312.8009" y2="235.0346" gradientTransform="matrix(1 0 0 -1 0 284)">
		<stop  offset="0" style="stop-color:#AF8B4C"/>
		<stop  offset="0.28" style="stop-color:#896735"/>
		<stop  offset="0.42" style="stop-color:#B78E4D"/>
		<stop  offset="0.56" style="stop-color:#DEAF62"/>
		<stop  offset="0.63" style="stop-color:#EDBC6B"/>
		<stop  offset="0.71" style="stop-color:#DBAD61"/>
		<stop  offset="0.88" style="stop-color:#AE8649"/>
		<stop  offset="1" style="stop-color:#896735"/>
	</linearGradient>
	<path style="fill:url(#SVGID_00000073722516800262337630000008689023088189042306_);" d="M44.5,103v-0.7c0-1-0.7-1.9-1.7-2.1
		L3.3,92.4c-1.2-0.2-2.3,0.5-2.5,1.7c-0.2,1.2,0.5,2.3,1.7,2.5l30.5,6.1l-30.5,6.1c-1.2,0.2-1.9,1.4-1.7,2.5c0.2,1,1.1,1.7,2.1,1.7
		c0.1,0,0.3,0,0.4,0l39.4-7.8C43.7,104.9,44.5,104.1,44.5,103L44.5,103z"/>
	
		<linearGradient id="SVGID_00000125560850208773334030000016832783393333592238_" gradientUnits="userSpaceOnUse" x1="-86.8787" y1="97.2927" x2="324.3213" y2="168.5627" gradientTransform="matrix(1 0 0 -1 0 284)">
		<stop  offset="0" style="stop-color:#AF8B4C"/>
		<stop  offset="0.28" style="stop-color:#896735"/>
		<stop  offset="0.42" style="stop-color:#B78E4D"/>
		<stop  offset="0.56" style="stop-color:#DEAF62"/>
		<stop  offset="0.63" style="stop-color:#EDBC6B"/>
		<stop  offset="0.71" style="stop-color:#DBAD61"/>
		<stop  offset="0.88" style="stop-color:#AE8649"/>
		<stop  offset="1" style="stop-color:#896735"/>
	</linearGradient>
	<path style="fill:url(#SVGID_00000125560850208773334030000016832783393333592238_);" d="M61.7,145.2l-0.5-0.5
		c-0.7-0.7-1.9-0.8-2.7-0.3l-33.4,22.3c-1,0.7-1.2,2-0.6,3c0.7,1,2,1.2,3,0.6l25.9-17.3l-17.3,25.9c-0.7,1-0.4,2.3,0.6,3
		c0.4,0.2,0.8,0.4,1.2,0.4c0.7,0,1.4-0.3,1.8-0.9L62,147.9C62.6,147,62.5,145.9,61.7,145.2L61.7,145.2z"/>
	
		<linearGradient id="SVGID_00000062871422091038975730000006562946937922810783_" gradientUnits="userSpaceOnUse" x1="-81.5517" y1="66.61" x2="329.6383" y2="137.88" gradientTransform="matrix(1 0 0 -1 0 284)">
		<stop  offset="0" style="stop-color:#AF8B4C"/>
		<stop  offset="0.28" style="stop-color:#896735"/>
		<stop  offset="0.42" style="stop-color:#B78E4D"/>
		<stop  offset="0.56" style="stop-color:#DEAF62"/>
		<stop  offset="0.63" style="stop-color:#EDBC6B"/>
		<stop  offset="0.71" style="stop-color:#DBAD61"/>
		<stop  offset="0.88" style="stop-color:#AE8649"/>
		<stop  offset="1" style="stop-color:#896735"/>
	</linearGradient>
	<path style="fill:url(#SVGID_00000062871422091038975730000006562946937922810783_);" d="M105.8,164.5c-0.2-1-1.1-1.7-2.1-1.7h-0.7
		c-1,0-1.9,0.7-2.1,1.7L93.1,204c-0.2,1.2,0.5,2.3,1.7,2.5c1.2,0.2,2.3-0.5,2.5-1.7l6.1-30.5l6.1,30.5c0.2,1,1.1,1.7,2.1,1.7
		c0.1,0,0.3,0,0.4,0c1.2-0.2,1.9-1.4,1.7-2.5L105.8,164.5L105.8,164.5z"/>
	
		<linearGradient id="SVGID_00000024002585447358402500000017491415508506718343_" gradientUnits="userSpaceOnUse" x1="-83.5413" y1="78.0772" x2="327.6588" y2="149.3572" gradientTransform="matrix(1 0 0 -1 0 284)">
		<stop  offset="0" style="stop-color:#AF8B4C"/>
		<stop  offset="0.28" style="stop-color:#896735"/>
		<stop  offset="0.42" style="stop-color:#B78E4D"/>
		<stop  offset="0.56" style="stop-color:#DEAF62"/>
		<stop  offset="0.63" style="stop-color:#EDBC6B"/>
		<stop  offset="0.71" style="stop-color:#DBAD61"/>
		<stop  offset="0.88" style="stop-color:#AE8649"/>
		<stop  offset="1" style="stop-color:#896735"/>
	</linearGradient>
	<path style="fill:url(#SVGID_00000024002585447358402500000017491415508506718343_);" d="M182.1,167.6l-33.4-22.3
		c-0.9-0.6-2-0.5-2.7,0.3l-0.5,0.5c-0.7,0.7-0.8,1.9-0.3,2.7l22.3,33.4c0.4,0.6,1.1,0.9,1.8,0.9c0.4,0,0.8-0.1,1.2-0.4
		c1-0.7,1.2-2,0.6-3l-17.3-25.9l25.9,17.3c1,0.7,2.3,0.4,3-0.6C183.3,169.6,183,168.3,182.1,167.6L182.1,167.6z"/>
	
		<linearGradient id="SVGID_00000123410635481047019550000004495050483028032443_" gradientUnits="userSpaceOnUse" x1="-92.3025" y1="128.6244" x2="318.8875" y2="199.9044" gradientTransform="matrix(1 0 0 -1 0 284)">
		<stop  offset="0" style="stop-color:#AF8B4C"/>
		<stop  offset="0.28" style="stop-color:#896735"/>
		<stop  offset="0.42" style="stop-color:#B78E4D"/>
		<stop  offset="0.56" style="stop-color:#DEAF62"/>
		<stop  offset="0.63" style="stop-color:#EDBC6B"/>
		<stop  offset="0.71" style="stop-color:#DBAD61"/>
		<stop  offset="0.88" style="stop-color:#AE8649"/>
		<stop  offset="1" style="stop-color:#896735"/>
	</linearGradient>
	<path style="fill:url(#SVGID_00000123410635481047019550000004495050483028032443_);" d="M205.5,109.9l-30.5-6.1l30.5-6.1
		c1.2-0.2,1.9-1.4,1.7-2.5c-0.2-1.2-1.4-1.9-2.5-1.7l-39.4,7.8c-1,0.2-1.7,1.1-1.7,2.1v0.7c0,1,0.7,1.9,1.7,2.1l39.4,7.8
		c0.1,0,0.3,0,0.4,0c1,0,1.9-0.7,2.1-1.7C207.4,111.2,206.7,110.1,205.5,109.9L205.5,109.9z"/>
	
		<linearGradient id="SVGID_00000047746894506102324400000009964927528423016601_" gradientUnits="userSpaceOnUse" x1="-95.3497" y1="146.1884" x2="315.8503" y2="217.4584" gradientTransform="matrix(1 0 0 -1 0 284)">
		<stop  offset="0" style="stop-color:#AF8B4C"/>
		<stop  offset="0.28" style="stop-color:#896735"/>
		<stop  offset="0.42" style="stop-color:#B78E4D"/>
		<stop  offset="0.56" style="stop-color:#DEAF62"/>
		<stop  offset="0.63" style="stop-color:#EDBC6B"/>
		<stop  offset="0.71" style="stop-color:#DBAD61"/>
		<stop  offset="0.88" style="stop-color:#AE8649"/>
		<stop  offset="1" style="stop-color:#896735"/>
	</linearGradient>
	<path style="fill:url(#SVGID_00000047746894506102324400000009964927528423016601_);" d="M202.8,128.9l-61.4-25.4l61.4-25.4
		c1.1-0.4,1.6-1.7,1.2-2.8c-0.4-1.1-1.7-1.6-2.8-1.2l-64.4,26.7c-0.2-2.8-0.8-5.5-1.6-8.1L199,66.2c1.1-0.4,1.6-1.7,1.2-2.8
		s-1.7-1.6-2.8-1.2l-63.9,26.5c-1.2-2.3-2.6-4.5-4.3-6.5l64.5-26.7c1.1-0.5,1.6-1.7,1.2-2.8s-1.7-1.6-2.8-1.2L130.6,77l25.4-61.4
		c0.4-1.1-0.1-2.4-1.2-2.8c-1.1-0.5-2.4,0.1-2.8,1.2l-26.7,64.4c-2.1-1.8-4.4-3.3-6.9-4.6L145,9.9c0.4-1.1-0.1-2.3-1.2-2.8
		c-1.1-0.4-2.4,0.1-2.8,1.2l-26.5,63.9c-2.4-0.8-5-1.4-7.6-1.6l26.7-64.5c0.4-1.1-0.1-2.3-1.2-2.8c-1.1-0.5-2.4,0.1-2.8,1.2
		l-25.4,61.4L78.8,4.4c-0.4-1.1-1.7-1.6-2.8-1.2c-1.1,0.5-1.6,1.7-1.2,2.8l26.7,64.4c-2.8,0.2-5.5,0.8-8.1,1.7L66.9,8.2
		c-0.4-1.1-1.7-1.6-2.8-1.2c-1.1,0.4-1.6,1.7-1.2,2.8l26.5,63.9c-2.3,1.2-4.5,2.6-6.5,4.3L56.2,13.6c-0.5-1.1-1.7-1.6-2.8-1.2
		c-1.1,0.4-1.6,1.7-1.2,2.8l25.4,61.4L16.3,51.2c-1.1-0.5-2.4,0.1-2.8,1.2s0.1,2.3,1.2,2.8l64.4,26.7c-1.8,2.1-3.3,4.4-4.6,6.9
		L10.6,62.3c-1.1-0.5-2.4,0.1-2.8,1.2c-0.4,1.1,0.1,2.3,1.2,2.8l63.9,26.5c-0.8,2.4-1.4,5-1.6,7.6L6.8,73.6
		c-1.1-0.4-2.3,0.1-2.8,1.2c-0.5,1.1,0.1,2.3,1.2,2.8L66.5,103L5.1,128.4c-1.1,0.4-1.6,1.7-1.2,2.8c0.3,0.8,1.1,1.3,2,1.3
		c0.3,0,0.6-0.1,0.8-0.2l64.4-26.7c0.2,2.8,0.8,5.5,1.7,8.1L8.9,140.3c-1.1,0.4-1.6,1.7-1.2,2.8c0.3,0.8,1.1,1.3,2,1.3
		c0.3,0,0.6-0.1,0.8-0.2l63.9-26.5c1.2,2.3,2.6,4.5,4.3,6.5L14.3,151c-1.1,0.4-1.6,1.7-1.2,2.8s1.7,1.6,2.8,1.2l61.4-25.4L51.9,191
		c-0.5,1.1,0.1,2.4,1.2,2.8c0.3,0.1,0.5,0.2,0.8,0.2c0.8,0,1.6-0.5,2-1.3l26.7-64.4c2.1,1.8,4.4,3.4,6.9,4.6L63,196.7
		c-0.5,1.1,0.1,2.4,1.2,2.8c0.3,0.1,0.6,0.2,0.8,0.2c0.8,0,1.6-0.5,2-1.3l26.5-63.9c2.4,0.8,5,1.4,7.6,1.6l-26.7,64.5
		c-0.4,1.1,0.1,2.4,1.2,2.8c1.1,0.4,2.3-0.1,2.8-1.2l25.4-61.4l25.4,61.4c0.3,0.8,1.1,1.3,2,1.3c0.3,0,0.6-0.1,0.8-0.2
		c1.1-0.4,1.6-1.7,1.2-2.8l-26.7-64.4c2.8-0.2,5.5-0.8,8.1-1.6l26.5,63.9c0.3,0.8,1.1,1.3,2,1.3c0.3,0,0.6-0.1,0.8-0.2
		c1.1-0.4,1.6-1.7,1.2-2.8l-26.5-63.9c2.3-1.2,4.5-2.6,6.5-4.3l26.7,64.5c0.3,0.8,1.1,1.3,2,1.3c0.3,0,0.6-0.1,0.8-0.2
		c1.1-0.4,1.6-1.7,1.2-2.8l-25.4-61.4l61.4,25.4c1.1,0.4,2.4-0.1,2.8-1.2s-0.1-2.4-1.2-2.8l-64.4-26.7c1.8-2.1,3.4-4.4,4.6-6.9
		l63.9,26.5c0.3,0.1,0.6,0.2,0.8,0.2c0.8,0,1.6-0.5,2-1.3c0.4-1.1-0.1-2.4-1.2-2.8l-63.9-26.5c0.8-2.4,1.4-5,1.6-7.6l64.5,26.7
		c0.3,0.1,0.6,0.2,0.8,0.2c0.8,0,1.6-0.5,2-1.3C204.4,130.6,203.9,129.4,202.8,128.9L202.8,128.9z M104,131.9
		c-15.8,0-28.6-12.8-28.6-28.6S88.2,74.7,104,74.7s28.6,12.8,28.6,28.6S119.7,131.9,104,131.9z"/>
	
		<linearGradient id="SVGID_00000160881430270873497250000008347282801766724514_" gradientUnits="userSpaceOnUse" x1="-103.8195" y1="195.077" x2="307.3705" y2="266.347" gradientTransform="matrix(1 0 0 -1 0 284)">
		<stop  offset="0" style="stop-color:#AF8B4C"/>
		<stop  offset="0.28" style="stop-color:#896735"/>
		<stop  offset="0.42" style="stop-color:#B78E4D"/>
		<stop  offset="0.56" style="stop-color:#DEAF62"/>
		<stop  offset="0.63" style="stop-color:#EDBC6B"/>
		<stop  offset="0.71" style="stop-color:#DBAD61"/>
		<stop  offset="0.88" style="stop-color:#AE8649"/>
		<stop  offset="1" style="stop-color:#896735"/>
	</linearGradient>
	<path style="fill:url(#SVGID_00000160881430270873497250000008347282801766724514_);" d="M146.3,61.3l0.5,0.5
		c0.4,0.4,1,0.6,1.5,0.6c0.4,0,0.8-0.1,1.2-0.4l33.4-22.3c1-0.7,1.2-2,0.6-3s-2-1.2-3-0.6l-25.9,17.3l17.3-25.9c0.7-1,0.4-2.3-0.6-3
		c-1-0.7-2.3-0.4-3,0.6L146,58.6C145.4,59.5,145.5,60.6,146.3,61.3L146.3,61.3z"/>
</g>
<g class="st10">
	<path class="st11" d="M2.9,247c0.3-1.7,0.4-3.3,0.4-5.1v-15.4c0-1.6-0.1-3.3-0.4-5h9.5c3.8,0,6.8,1.2,9.1,3.7
		c2.3,2.5,3.5,5.4,3.5,8.9c0,3.4-1.1,6.4-3.4,9c-2.3,2.6-5.3,3.8-9.2,3.8H2.9z M6.7,242c0,0.5,0.1,1.5,0.2,3h5.5
		c2.7,0,4.9-1.1,6.6-3.3c1.5-1.8,2.2-4.3,2.2-7.5s-0.8-5.7-2.5-7.6c-1.7-1.9-3.8-2.9-6.3-2.9H6.9c-0.1,1.4-0.2,2.4-0.2,2.9V242z"/>
	<path class="st11" d="M36.7,236.7l-1.2,0.1h-2v5.2c0,1.8,0.2,3.5,0.6,5.1h-4.4c0.3-1.7,0.4-3.3,0.4-5.1v-15.4c0-1.6-0.1-3.3-0.4-5
		h5.8c2.8,0,5,0.7,6.6,2.1c1.7,1.4,2.6,3.2,2.6,5.4c0,2.2-0.9,4-2.6,5.4c-0.3,0.2-0.6,0.5-1,0.7c-0.3,0.2-0.7,0.4-1,0.6l4.8,7.2
		c1,1.4,2,2.7,3.2,3.9h-5.1c-0.9-2-1.7-3.5-2.4-4.5L36.7,236.7z M33.7,223.7c-0.1,1.5-0.2,2.5-0.2,2.9v8h2c1.7,0,3-0.5,4-1.5
		c1-1,1.5-2.3,1.5-3.9s-0.5-2.9-1.4-3.9c-1.2-1.1-2.5-1.6-4.1-1.6H33.7z"/>
	<path class="st11" d="M55.3,221.6c-0.4,1.7-0.6,3.3-0.6,5V242c0,1.8,0.2,3.5,0.6,5.1h-4.4c0.3-1.7,0.4-3.3,0.4-5.1v-15.4
		c0-1.6-0.1-3.3-0.4-5H55.3z"/>
	<path class="st11" d="M81.7,221.6c-0.4,1.3-0.6,3-0.6,5V242c0,1.8,0.2,3.5,0.6,5.1h-3.5c-0.9-1.7-1.8-3.2-2.6-4.4l-11.6-15.7v15
		c0,1.7,0.1,3.4,0.4,5.1H61c0.3-1.7,0.4-3.3,0.4-5.1v-15.4c0-1.6-0.1-3.3-0.4-5h3.5c0.8,1.7,1.7,3.2,2.7,4.4l11.6,15.5v-14.9
		c0-2-0.2-3.6-0.6-5H81.7z"/>
	<path class="st11" d="M91.8,221.6c-0.4,1.7-0.6,3.3-0.6,5v7.1l7.8-8.2c0.9-0.9,1.9-2.2,3.1-3.9h4.4c-1.4,0.9-2.7,2-3.8,3.3l-8.7,9
		l10.4,10c1.2,1.2,2.5,2.2,4,3.1h-6.1c-1-1.5-2.1-2.8-3.3-3.9l-7.2-6.9l-0.7,0.7v5.1c0,1.8,0.2,3.5,0.6,5.1h-4.4
		c0.3-1.7,0.4-3.3,0.4-5.1v-15.4c0-1.6-0.1-3.3-0.4-5H91.8z"/>
	<path class="st11" d="M116.2,247c-0.1-1.8-0.4-3.5-0.8-5l-4.6-15.7c-0.4-1.6-1-3.1-1.9-4.7h4.4c0.1,1.7,0.4,3.4,0.8,5l4.6,15.4
		l4.5-15.4c0.5-1.5,0.8-3.2,1-5h3.3c0.1,1.7,0.4,3.4,0.9,5l4.5,15.4l4.6-15.4c0.5-1.5,0.8-3.2,1-5h3.3c-0.6,1.1-1.3,2.6-1.9,4.7
		l-4.5,15.7c-0.4,1.2-0.7,2.8-1,5h-3.8c-0.1-1.8-0.4-3.5-0.9-5l-4.3-14.6L121,242c-0.5,1.5-0.8,3.2-1,5H116.2z"/>
	<path class="st11" d="M141.9,247c1.1-1.4,1.9-2.8,2.6-4.4l7.5-16.3c0.6-1.3,1.2-2.9,1.7-4.8h3c0.5,1.7,1,3.3,1.7,4.8l7.5,16.3
		c0.6,1.4,1.5,2.8,2.6,4.4h-4.8c-0.6-2.1-1.1-3.7-1.7-4.8l-3.2-6.9h-8.4l-3.1,6.9c-0.7,1.9-1.3,3.5-1.7,4.8H141.9z M151.3,233.4h6.8
		l-3.5-7.8L151.3,233.4z"/>
	<path class="st11" d="M178.5,236.7l-1.2,0.1h-2v5.2c0,1.8,0.2,3.5,0.6,5.1h-4.4c0.3-1.7,0.4-3.3,0.4-5.1v-15.4c0-1.6-0.1-3.3-0.4-5
		h5.8c2.8,0,5,0.7,6.6,2.1c1.7,1.4,2.6,3.2,2.6,5.4c0,2.2-0.9,4-2.6,5.4c-0.3,0.2-0.6,0.5-1,0.7c-0.3,0.2-0.7,0.4-1,0.6l4.8,7.2
		c1,1.4,2,2.7,3.2,3.9h-5.1c-0.9-2-1.7-3.5-2.4-4.5L178.5,236.7z M175.5,223.7c-0.1,1.5-0.2,2.5-0.2,2.9v8h2c1.7,0,3-0.5,4-1.5
		c1-1,1.5-2.3,1.5-3.9s-0.5-2.9-1.4-3.9c-1.2-1.1-2.5-1.6-4.1-1.6H175.5z"/>
	<path class="st11" d="M196.5,242c0,0.3,0.1,1.3,0.2,3h4.5c1.8,0,3.5-0.2,5.1-0.5v2.6h-13.6c0.3-1.7,0.4-3.3,0.4-5.1v-15.4
		c0-1.6-0.1-3.3-0.4-5h11.6v2.6c-1.9-0.3-3.6-0.5-5.1-0.5h-2.5c0,0.5-0.1,1-0.1,1.5c0,0.5-0.1,1-0.1,1.4v6.6h2.7
		c1.2,0,2.8-0.2,5.1-0.6v3.1c-1.4-0.3-3.1-0.5-5.1-0.5h-2.7V242z"/>
</g>
</svg>
